HIERARCHY
ROOT Hips
{
	OFFSET -0.179506 -22.333345 2.821913
	CHANNELS 6 Xposition Yposition Zposition Zrotation Yrotation Xrotation 
	JOINT LeftUpLeg
	{
		OFFSET 6.951974 -9.140623 -0.681533
		CHANNELS 3 Zrotation Yrotation Xrotation
		JOINT LeftLeg
		{
			OFFSET 3.427654 -37.519855 -0.449580
			CHANNELS 3 Zrotation Yrotation Xrotation
			JOINT LeftFoot
			{
				OFFSET -1.359570 -39.796059 -4.369333
				CHANNELS 3 Zrotation Yrotation Xrotation
				JOINT LeftToe
				{
					OFFSET 2.635814 -5.579078 11.928840
					CHANNELS 3 Zrotation Yrotation Xrotation
					End Site
					{
						OFFSET 0.000000 0.000000 0.000000
					}
				}
			}
		}
	}
	JOINT RightUpLeg
	{
		OFFSET -6.767048 -9.052170 -0.431982
		CHANNELS 3 Zrotation Yrotation Xrotation
		JOINT RightLeg
		{
			OFFSET -3.829005 -38.256897 -0.885003
			CHANNELS 3 Zrotation Yrotation Xrotation
			JOINT RightFoot
			{
				OFFSET 1.577377 -39.841461 -4.231180
				CHANNELS 3 Zrotation Yrotation Xrotation
				JOINT RightToe
				{
					OFFSET -2.537174 -4.814398 12.334795
					CHANNELS 3 Zrotation Yrotation Xrotation
					End Site
					{
						OFFSET 0.000000 0.000000 0.000000
					}
				}
			}
		}
	}
	JOINT Spine
	{
		OFFSET -0.253288 10.896323 -2.669631
		CHANNELS 3 Zrotation Yrotation Xrotation
		JOINT Spine1
		{
			OFFSET 0.548704 13.518043 0.109247
			CHANNELS 3 Zrotation Yrotation Xrotation
			JOINT Spine2
			{
				OFFSET 0.145701 5.292222 2.542457
				CHANNELS 3 Zrotation Yrotation Xrotation
				JOINT Neck
				{
					OFFSET -0.277840 21.387037 -4.285703
					CHANNELS 3 Zrotation Yrotation Xrotation
					JOINT Head
					{
						OFFSET 0.515184 6.496960 5.134897
						CHANNELS 3 Zrotation Yrotation Xrotation
						End Site
						{
							OFFSET 0.000000 0.000000 0.000000
						}
					}
				}
				JOINT LeftShoulder
				{
					OFFSET 7.884473 12.174932 -3.408961
					CHANNELS 3 Zrotation Yrotation Xrotation
					JOINT LeftArm
					{
						OFFSET 9.097692 3.046888 -0.886815
						CHANNELS 3 Zrotation Yrotation Xrotation
						JOINT LeftForeArm
						{
							OFFSET 25.961220 -1.277207 -2.745643
							CHANNELS 3 Zrotation Yrotation Xrotation
							JOINT LeftHand
							{
								OFFSET 24.923361 0.898606 -0.117091
								CHANNELS 3 Zrotation Yrotation Xrotation
								End Site
								{
									OFFSET 0.000000 0.000000 0.000000
								}
							}
						}
					}
				}
				JOINT RightShoulder
				{
					OFFSET -8.175920 11.883285 -3.861528
					CHANNELS 3 Zrotation Yrotation Xrotation
					JOINT RightArm
					{
						OFFSET -9.601238 3.255117 -0.914307
						CHANNELS 3 Zrotation Yrotation Xrotation
						JOINT RightForeArm
						{
							OFFSET -25.374195 -1.332924 -2.140099
							CHANNELS 3 Zrotation Yrotation Xrotation
							JOINT RightHand
							{
								OFFSET -25.529810 0.777228 -0.555919
								CHANNELS 3 Zrotation Yrotation Xrotation
								End Site
								{
									OFFSET 0.000000 0.000000 0.000000
								}
							}
						}
					}
				}
			}
		}
	}
}
MOTION
Frames: 15
Frame Time: 0.033333
287.050751 -280.097961 86.308708 59.422122 1.356277 74.873252 6.742439 0.726535 -17.699552 -9.089384 3.837005 79.464901 1.917859 3.462224 -18.167789 nan nan nan -1.981738 2.552146 -15.700595 1.691464 6.101214 51.258024 5.838912 1.044673 -15.308144 nan nan nan 0.541604 -2.400487 22.236195 2.725172 -4.307378 -5.860741 0.919533 -3.319143 1.405649 -3.900211 -1.249290 -6.626946 6.442652 3.727327 -6.265469 -17.040971 -4.484473 -1.630488 -46.005334 -14.181943 9.751443 -174.077242 -68.470379 -153.470394 -13.781090 -11.820527 -7.581338 14.882208 -6.036281 -1.318112 48.185254 -18.236343 7.773287 18.713513 77.316067 44.019342 23.229254 5.590897 -6.981094 
286.118896 -279.426514 86.433517 59.658806 1.664311 74.952485 7.075568 1.487913 -15.663321 -10.253456 2.156892 80.008574 0.687370 2.512024 -17.577270 nan nan nan -1.448042 2.377532 -16.357851 1.302586 6.479715 50.644435 5.859415 0.566230 -14.169266 nan nan nan 0.344488 -3.389821 21.853274 2.957829 -4.802907 -6.523333 1.243618 -4.000574 1.848022 -4.508741 -0.868893 -5.764714 6.389651 5.299100 -6.489375 -16.281693 -4.501101 -1.802032 -45.173155 -15.231677 9.124454 -175.027424 -67.582118 -153.479293 -13.051631 -12.115076 -8.998267 13.763763 -7.061054 -1.076189 47.606701 -20.074940 8.269055 27.745357 78.100235 53.043693 24.561412 5.745560 -8.001812 
285.141388 -278.709869 86.640137 60.054375 1.881957 75.287630 6.479951 2.596902 -14.742914 -9.478506 0.400436 81.397907 2.212731 2.463028 -16.049843 nan nan nan -1.078126 2.268078 -17.261779 1.186960 6.994480 49.884347 6.181792 -0.402786 -12.635647 nan nan nan 0.372698 -4.290347 20.141645 3.070918 -5.254865 -6.356334 0.905163 -4.745305 2.887637 -4.963976 -0.500182 -4.507203 6.586475 6.641452 -7.551083 -15.380171 -5.339160 -1.045281 -43.236744 -16.749711 8.322740 -177.841839 -66.980960 -152.210133 -11.996686 -11.598172 -9.030856 13.060348 -8.295897 -1.178110 47.152204 -21.438861 8.868524 36.134720 78.331625 61.084222 26.109033 6.199196 -9.073892 
284.093719 -277.995880 87.008278 60.661784 2.154064 75.753938 6.780029 3.110143 -13.376881 -10.414556 -0.406645 81.092051 3.130136 3.196888 -14.892262 nan nan nan -0.893058 2.633091 -18.025147 1.358156 7.032964 48.609221 6.368460 -1.900064 -10.673263 nan nan nan 0.104266 -5.567999 19.256347 3.260366 -6.189586 -6.820274 1.013568 -5.384754 3.182635 -5.475681 -0.334943 -3.319690 6.730009 8.799719 -7.741016 -14.797875 -5.814547 -0.643050 -41.132606 -16.651396 7.661440 -179.653710 -65.935579 -151.314125 -10.364925 -11.290160 -10.211378 12.105750 -8.746575 -0.987730 46.310910 -23.130434 9.617725 45.439502 78.241256 69.820689 26.337201 7.031658 -10.982052 
283.554169 -277.351868 87.448059 58.754137 2.447565 75.186456 7.687389 2.344265 -8.884295 -11.196724 0.693818 78.347307 3.443350 3.770572 -14.122323 nan nan nan 0.128114 4.428908 -17.392074 1.422644 7.993850 46.802056 6.397501 -3.117310 -8.608079 nan nan nan 0.895036 -6.693614 18.851475 3.030884 -6.167771 -6.832940 0.657448 -4.912770 3.205801 -6.085902 0.049444 -2.309100 6.671367 10.754994 -7.219317 -13.952258 -6.244131 -0.729075 -39.930060 -15.614368 7.710869 178.631857 -65.019330 -150.428221 -9.016227 -11.856046 -10.844720 10.254620 -8.950013 -1.323205 45.528827 -25.638107 10.480064 56.494864 77.679886 80.806314 26.733374 8.388892 -12.735211 
282.927979 -276.478210 87.822136 57.552347 2.885511 75.211282 7.695189 4.037790 -5.608898 -12.244587 -2.021720 76.078221 4.460854 3.543824 -12.814878 nan nan nan 0.974455 5.135542 -17.348470 1.746319 9.457352 44.711942 6.159697 -4.421458 -6.163414 nan nan nan 1.253032 -8.290621 16.675272 2.878359 -5.389458 -4.970142 0.876678 -5.305943 3.534386 -6.636060 -0.060203 -1.665047 6.326945 13.130349 -7.582031 -13.265218 -6.766797 -0.184082 -38.879330 -15.826011 7.062915 176.953658 -64.597474 -148.821081 -7.211001 -11.299014 -11.322707 8.783335 -9.369888 -1.329661 44.469242 -26.455974 10.658832 65.464695 77.301800 89.493959 29.545347 9.957630 -14.909683 
282.417542 -275.494171 88.451935 56.623666 3.196901 74.250629 7.222753 5.084987 -1.064287 -13.310433 -4.855749 73.328502 4.151686 3.866135 -13.318634 nan nan nan 1.436845 5.330277 -15.633190 1.567436 10.598711 41.726945 6.773071 -4.952248 -3.869174 nan nan nan 1.623334 -11.612404 17.189938 2.271292 -4.433072 -5.524908 0.970226 -4.522003 4.078858 -7.619552 -0.390187 -0.343084 6.219821 15.725708 -8.249049 -12.329469 -7.025277 0.159183 -38.250595 -15.238505 7.405781 174.606653 -63.931236 -146.758257 -6.948209 -10.382896 -10.185454 6.825613 -9.318676 -0.915291 44.200016 -27.655038 10.884155 72.389760 77.360015 95.304225 33.747456 10.152886 -15.080084 
281.699036 -274.494904 89.199837 55.929999 3.206847 73.773940 6.234305 5.049907 2.582311 -13.695359 -6.676998 70.324087 3.275943 4.134735 -13.919607 nan nan nan 1.318740 5.887860 -14.467116 1.096517 10.957672 38.626622 8.074958 -5.065889 -1.539803 nan nan nan 1.840256 -12.470821 16.262288 2.442773 -4.619070 -4.439422 0.592338 -4.430436 4.124937 -7.903226 -0.104735 0.987536 5.669326 17.006785 -9.359928 -11.055526 -7.784302 0.874892 -37.887308 -15.139934 8.215720 170.837783 -63.454432 -143.518506 -7.521099 -10.216535 -7.212797 5.507272 -9.884359 -0.837567 44.152816 -28.533162 11.701716 78.576158 78.830774 100.502624 38.459370 9.861513 -14.862261 
280.883514 -273.484894 89.979179 55.275244 3.387866 73.696254 5.328366 4.996197 5.467438 -13.617186 -8.464455 67.148041 2.441478 4.284865 -14.226076 nan nan nan 1.464874 6.355543 -13.648858 0.403962 11.433195 35.217139 9.222791 -5.250076 1.127602 nan nan nan 2.169157 -12.619646 15.195388 2.806107 -5.569334 -3.241526 0.646176 -4.675366 3.725968 -8.299944 0.483588 2.277139 4.922034 18.252786 -10.481815 -10.113804 -7.941133 1.201290 -37.813218 -14.619505 8.150938 170.218327 -63.122149 -142.961695 -7.691423 -10.673620 -5.248216 4.317548 -10.050585 -0.382844 43.503619 -28.985075 12.208728 84.657709 79.146186 107.450817 37.949166 8.466644 -11.866407 
279.989990 -272.444061 90.738823 54.725828 3.830267 73.641266 4.733388 4.824518 7.985364 -13.481428 -10.193467 63.852824 1.743809 4.538727 -13.977552 nan nan nan 1.768864 6.811581 -12.708309 -0.230234 11.705407 31.322427 10.248533 -5.556899 4.255283 nan nan nan 2.133753 -12.798961 13.735330 3.347083 -6.748130 -1.292659 1.168020 -4.892180 3.571741 -8.836248 0.846247 3.487067 4.243714 19.711246 -12.177845 -9.156674 -8.037855 1.501119 -38.188468 -14.333972 7.960569 169.785229 -62.968978 -142.279313 -8.049533 -10.603179 -4.610308 3.010744 -9.720661 0.374314 43.440416 -28.779048 12.281144 88.792034 79.821566 111.019870 38.454143 8.463654 -12.848632 
278.966309 -271.450928 91.508568 54.526999 4.382194 73.263211 4.313266 5.068415 10.615092 -13.440462 -13.021373 60.771350 1.034436 5.288663 -13.719028 nan nan nan 2.256726 6.621724 -11.284770 -0.862490 12.230348 27.137737 10.940753 -6.295137 7.796273 nan nan nan 2.077010 -14.439095 13.858141 3.019541 -6.802732 -1.073864 1.995426 -4.524939 3.644026 -9.517878 0.963776 3.982004 4.456165 21.141650 -12.147225 -8.608115 -8.211028 2.012945 -37.411911 -13.983952 6.616533 172.128628 -63.018631 -143.578888 -8.368173 -10.633085 -7.121183 1.910360 -9.177244 1.001155 43.685917 -29.719122 10.341453 93.814072 78.870219 115.822779 39.976313 11.105137 -17.399595 
277.937408 -270.327484 92.160072 54.236309 4.585246 73.668712 3.183152 4.767797 12.035250 -12.808059 -14.759381 57.594328 0.470141 5.916066 -13.673443 nan nan nan 2.014161 6.518619 -10.947501 -1.431525 12.451769 23.076139 12.093960 -6.203796 11.226967 nan nan nan 2.569397 -14.479891 12.955083 3.187594 -7.053590 -0.649956 1.877395 -4.618997 3.347888 -9.360479 1.273449 5.001635 4.120932 21.425667 -12.615739 -7.725500 -8.266018 2.723699 -37.246435 -14.685932 6.988477 172.195495 -63.472350 -143.356325 -8.731037 -10.762328 -6.713632 0.884590 -10.225990 1.452098 44.117788 -29.780842 10.448453 95.704702 79.147773 117.944574 39.875376 11.763766 -18.477551 
276.454712 -269.084351 92.786728 54.391164 4.656779 74.693927 2.589838 3.769365 11.162406 -12.556425 -14.533971 55.915317 0.391673 5.673886 -13.081009 nan nan nan 1.499527 6.905190 -11.554530 -1.686607 12.610531 19.310427 12.187582 -6.516119 14.310071 nan nan nan 2.562917 -11.506881 11.558128 3.962502 -9.035584 0.709463 2.179577 -5.823295 2.167385 -9.210396 1.123375 5.690112 4.321161 21.712503 -12.997258 -7.194201 -9.137140 3.627617 -36.393248 -15.086654 5.787253 174.327033 -64.202199 -144.890266 -8.347016 -11.951073 -8.079254 0.631555 -10.499368 1.738528 44.654740 -30.292703 9.413585 95.825911 79.360455 119.075181 39.520802 13.516194 -20.712992 
275.196075 -268.060303 93.376183 54.100342 4.943986 75.573923 2.337108 3.529502 10.994459 -11.820542 -14.967765 53.563035 0.648528 5.480000 -12.510528 nan nan nan 1.539012 7.284063 -11.706371 -1.699855 13.995628 15.922331 11.471148 -5.819817 15.571113 nan nan nan 2.663475 -11.010055 10.182839 4.112378 -9.460944 1.568343 2.461177 -6.020171 1.527957 -9.079562 1.215899 6.789880 4.778587 22.053149 -13.376927 -6.663781 -9.413764 4.329760 -36.176039 -15.111022 5.351934 176.444390 -64.635530 -146.288019 -8.183437 -12.199424 -8.348472 0.089530 -10.193430 2.992243 46.017079 -30.189818 7.735371 95.534576 79.705962 119.366259 39.912446 14.732279 -22.959701 
273.874115 -267.049835 93.894814 54.179397 5.295957 76.719944 2.155983 2.804486 10.214699 -11.078057 -14.950573 51.475993 0.974859 5.348763 -12.133618 nan nan nan 1.624403 7.747048 -12.251485 -2.036174 15.035484 13.789135 10.856104 -4.995920 13.753464 nan nan nan 2.603747 -10.774110 8.955005 4.409631 -9.835949 2.071768 2.793713 -6.225799 0.725833 -8.597219 1.402316 7.896799 4.913263 22.262458 -13.759556 -6.212591 -9.341385 5.120328 -36.377715 -15.178060 5.331127 178.422467 -64.980451 -147.585128 -8.009170 -12.519262 -8.159754 -0.315634 -10.022947 4.214444 47.282478 -29.626657 6.447077 94.594005 80.244749 119.118575 40.204159 15.680835 -24.153487 
